<mxfile host="app.diagrams.net" modified="2021-08-31T17:17:53.221Z" agent="5.0 (Windows NT 10.0; Win64; x64) AppleWebKit/537.36 (KHTML, like Gecko) Chrome/92.0.4515.159 Safari/537.36" etag="GV6DF7hoJlk84upaCWLr" version="15.0.3" type="github">
  <diagram name="Page-1" id="03018318-947c-dd8e-b7a3-06fadd420f32">
    <mxGraphModel dx="981" dy="526" grid="1" gridSize="10" guides="1" tooltips="1" connect="1" arrows="1" fold="1" page="1" pageScale="1" pageWidth="1100" pageHeight="850" background="#ffffff" math="0" shadow="0">
      <root>
        <mxCell id="0" />
        <mxCell id="1" parent="0" />
        <mxCell id="bgq5ql3Wi5CXJPzBRoZU-4" value="" style="rounded=0;whiteSpace=wrap;html=1;" vertex="1" parent="1">
          <mxGeometry x="40" y="40" width="360" height="400" as="geometry" />
        </mxCell>
        <mxCell id="bgq5ql3Wi5CXJPzBRoZU-6" value="" style="verticalLabelPosition=bottom;shadow=0;dashed=0;align=center;html=1;verticalAlign=top;strokeWidth=1;shape=mxgraph.mockup.graphics.simpleIcon;strokeColor=#999999;rounded=0;labelBackgroundColor=none;fontFamily=Verdana;fontSize=14;fontColor=#000000;comic=1;" vertex="1" parent="1">
          <mxGeometry x="95" y="60" width="250" height="160" as="geometry" />
        </mxCell>
        <mxCell id="bgq5ql3Wi5CXJPzBRoZU-7" value="Username" style="rounded=0;whiteSpace=wrap;html=1;" vertex="1" parent="1">
          <mxGeometry x="95" y="260" width="135" height="20" as="geometry" />
        </mxCell>
        <mxCell id="bgq5ql3Wi5CXJPzBRoZU-8" value="Administrator" style="text;html=1;strokeColor=none;fillColor=none;align=center;verticalAlign=middle;whiteSpace=wrap;rounded=0;" vertex="1" parent="1">
          <mxGeometry x="95" y="230" width="75" height="20" as="geometry" />
        </mxCell>
        <mxCell id="bgq5ql3Wi5CXJPzBRoZU-10" value="Passord" style="rounded=0;whiteSpace=wrap;html=1;" vertex="1" parent="1">
          <mxGeometry x="95" y="290" width="135" height="20" as="geometry" />
        </mxCell>
        <mxCell id="bgq5ql3Wi5CXJPzBRoZU-11" value="Sign in" style="labelPosition=center;verticalLabelPosition=middle;align=center;html=1;shape=mxgraph.basic.button;dx=5.2;" vertex="1" parent="1">
          <mxGeometry x="95" y="320" width="75" height="30" as="geometry" />
        </mxCell>
        <mxCell id="bgq5ql3Wi5CXJPzBRoZU-12" value="&lt;u&gt;Create an &quot;Administartor&quot; user&lt;/u&gt;" style="text;html=1;strokeColor=none;fillColor=none;align=center;verticalAlign=middle;whiteSpace=wrap;rounded=0;" vertex="1" parent="1">
          <mxGeometry x="95" y="370" width="165" height="20" as="geometry" />
        </mxCell>
        <mxCell id="bgq5ql3Wi5CXJPzBRoZU-13" value="" style="rounded=0;whiteSpace=wrap;html=1;" vertex="1" parent="1">
          <mxGeometry x="490" y="40" width="360" height="400" as="geometry" />
        </mxCell>
        <mxCell id="bgq5ql3Wi5CXJPzBRoZU-14" value="Eksamen &quot;tittel&quot;" style="text;html=1;strokeColor=none;fillColor=none;align=center;verticalAlign=middle;whiteSpace=wrap;rounded=0;" vertex="1" parent="1">
          <mxGeometry x="540" y="70" width="170" height="20" as="geometry" />
        </mxCell>
        <mxCell id="bgq5ql3Wi5CXJPzBRoZU-16" value="" style="rounded=1;whiteSpace=wrap;html=1;" vertex="1" parent="1">
          <mxGeometry x="580" y="120" width="210" height="100" as="geometry" />
        </mxCell>
        <mxCell id="bgq5ql3Wi5CXJPzBRoZU-17" value="Text (oppgave nummer/navn)" style="text;html=1;strokeColor=none;fillColor=none;align=center;verticalAlign=middle;whiteSpace=wrap;rounded=0;" vertex="1" parent="1">
          <mxGeometry x="580" y="100" width="170" height="20" as="geometry" />
        </mxCell>
        <mxCell id="bgq5ql3Wi5CXJPzBRoZU-18" value="" style="endArrow=none;html=1;" edge="1" parent="1">
          <mxGeometry width="50" height="50" relative="1" as="geometry">
            <mxPoint x="710" y="90" as="sourcePoint" />
            <mxPoint x="580" y="90" as="targetPoint" />
          </mxGeometry>
        </mxCell>
        <mxCell id="bgq5ql3Wi5CXJPzBRoZU-19" value="" style="ellipse;whiteSpace=wrap;html=1;aspect=fixed;" vertex="1" parent="1">
          <mxGeometry x="590" y="130" width="15" height="15" as="geometry" />
        </mxCell>
        <mxCell id="bgq5ql3Wi5CXJPzBRoZU-20" value="" style="ellipse;whiteSpace=wrap;html=1;aspect=fixed;" vertex="1" parent="1">
          <mxGeometry x="590" y="150" width="15" height="15" as="geometry" />
        </mxCell>
        <mxCell id="bgq5ql3Wi5CXJPzBRoZU-21" value="" style="ellipse;whiteSpace=wrap;html=1;aspect=fixed;" vertex="1" parent="1">
          <mxGeometry x="590" y="170" width="15" height="15" as="geometry" />
        </mxCell>
        <mxCell id="bgq5ql3Wi5CXJPzBRoZU-22" value="" style="ellipse;whiteSpace=wrap;html=1;aspect=fixed;" vertex="1" parent="1">
          <mxGeometry x="590" y="190" width="15" height="15" as="geometry" />
        </mxCell>
        <mxCell id="bgq5ql3Wi5CXJPzBRoZU-23" value="Text" style="text;html=1;strokeColor=none;fillColor=none;align=center;verticalAlign=middle;whiteSpace=wrap;rounded=0;" vertex="1" parent="1">
          <mxGeometry x="610" y="127.5" width="40" height="20" as="geometry" />
        </mxCell>
        <mxCell id="bgq5ql3Wi5CXJPzBRoZU-24" value="Text" style="text;html=1;strokeColor=none;fillColor=none;align=center;verticalAlign=middle;whiteSpace=wrap;rounded=0;" vertex="1" parent="1">
          <mxGeometry x="610" y="147.5" width="40" height="20" as="geometry" />
        </mxCell>
        <mxCell id="bgq5ql3Wi5CXJPzBRoZU-25" value="Text" style="text;html=1;strokeColor=none;fillColor=none;align=center;verticalAlign=middle;whiteSpace=wrap;rounded=0;" vertex="1" parent="1">
          <mxGeometry x="610" y="167.5" width="40" height="20" as="geometry" />
        </mxCell>
        <mxCell id="bgq5ql3Wi5CXJPzBRoZU-26" value="Text" style="text;html=1;strokeColor=none;fillColor=none;align=center;verticalAlign=middle;whiteSpace=wrap;rounded=0;" vertex="1" parent="1">
          <mxGeometry x="610" y="187.5" width="40" height="20" as="geometry" />
        </mxCell>
        <mxCell id="bgq5ql3Wi5CXJPzBRoZU-27" value="" style="whiteSpace=wrap;html=1;aspect=fixed;fillColor=#000000;" vertex="1" parent="1">
          <mxGeometry x="760" y="132.5" width="10" height="10" as="geometry" />
        </mxCell>
        <mxCell id="bgq5ql3Wi5CXJPzBRoZU-28" value="" style="whiteSpace=wrap;html=1;aspect=fixed;" vertex="1" parent="1">
          <mxGeometry x="760" y="152.5" width="10" height="10" as="geometry" />
        </mxCell>
        <mxCell id="bgq5ql3Wi5CXJPzBRoZU-29" value="" style="whiteSpace=wrap;html=1;aspect=fixed;" vertex="1" parent="1">
          <mxGeometry x="760" y="172.5" width="10" height="10" as="geometry" />
        </mxCell>
        <mxCell id="bgq5ql3Wi5CXJPzBRoZU-30" value="" style="whiteSpace=wrap;html=1;aspect=fixed;" vertex="1" parent="1">
          <mxGeometry x="760" y="192.5" width="10" height="10" as="geometry" />
        </mxCell>
        <mxCell id="bgq5ql3Wi5CXJPzBRoZU-31" value="Right answer" style="text;html=1;strokeColor=none;fillColor=none;align=center;verticalAlign=middle;whiteSpace=wrap;rounded=0;" vertex="1" parent="1">
          <mxGeometry x="890" y="127.5" width="80" height="20" as="geometry" />
        </mxCell>
        <mxCell id="bgq5ql3Wi5CXJPzBRoZU-32" value="" style="endArrow=classic;html=1;entryX=1;entryY=0.5;entryDx=0;entryDy=0;exitX=0;exitY=0.5;exitDx=0;exitDy=0;" edge="1" parent="1" source="bgq5ql3Wi5CXJPzBRoZU-31" target="bgq5ql3Wi5CXJPzBRoZU-27">
          <mxGeometry width="50" height="50" relative="1" as="geometry">
            <mxPoint x="840" y="182.5" as="sourcePoint" />
            <mxPoint x="890" y="132.5" as="targetPoint" />
          </mxGeometry>
        </mxCell>
        <mxCell id="bgq5ql3Wi5CXJPzBRoZU-33" value="" style="endArrow=classic;html=1;entryX=1;entryY=0.5;entryDx=0;entryDy=0;exitX=0;exitY=0.5;exitDx=0;exitDy=0;" edge="1" parent="1">
          <mxGeometry width="50" height="50" relative="1" as="geometry">
            <mxPoint x="890" y="157.25999999999993" as="sourcePoint" />
            <mxPoint x="770" y="157.25999999999993" as="targetPoint" />
          </mxGeometry>
        </mxCell>
        <mxCell id="bgq5ql3Wi5CXJPzBRoZU-34" value="Wrong answer" style="text;html=1;strokeColor=none;fillColor=none;align=center;verticalAlign=middle;whiteSpace=wrap;rounded=0;" vertex="1" parent="1">
          <mxGeometry x="890" y="147.5" width="80" height="20" as="geometry" />
        </mxCell>
        <mxCell id="bgq5ql3Wi5CXJPzBRoZU-35" value="" style="endArrow=classic;html=1;entryX=1;entryY=0.5;entryDx=0;entryDy=0;exitX=0;exitY=0.5;exitDx=0;exitDy=0;" edge="1" parent="1" source="bgq5ql3Wi5CXJPzBRoZU-34" target="bgq5ql3Wi5CXJPzBRoZU-29">
          <mxGeometry width="50" height="50" relative="1" as="geometry">
            <mxPoint x="900" y="167.26" as="sourcePoint" />
            <mxPoint x="780" y="167.26" as="targetPoint" />
          </mxGeometry>
        </mxCell>
        <mxCell id="bgq5ql3Wi5CXJPzBRoZU-36" value="" style="endArrow=classic;html=1;entryX=1;entryY=0.5;entryDx=0;entryDy=0;exitX=0;exitY=0.5;exitDx=0;exitDy=0;" edge="1" parent="1" source="bgq5ql3Wi5CXJPzBRoZU-34" target="bgq5ql3Wi5CXJPzBRoZU-30">
          <mxGeometry width="50" height="50" relative="1" as="geometry">
            <mxPoint x="910" y="177.26" as="sourcePoint" />
            <mxPoint x="790" y="177.26" as="targetPoint" />
          </mxGeometry>
        </mxCell>
        <mxCell id="bgq5ql3Wi5CXJPzBRoZU-37" value="" style="rounded=1;whiteSpace=wrap;html=1;fillColor=#FFFFFF;" vertex="1" parent="1">
          <mxGeometry x="620" y="370" width="130" height="40" as="geometry" />
        </mxCell>
        <mxCell id="bgq5ql3Wi5CXJPzBRoZU-38" value="Legg til flere oppgaver" style="text;html=1;strokeColor=none;fillColor=none;align=center;verticalAlign=middle;whiteSpace=wrap;rounded=0;" vertex="1" parent="1">
          <mxGeometry x="655" y="380" width="70" height="20" as="geometry" />
        </mxCell>
        <mxCell id="bgq5ql3Wi5CXJPzBRoZU-39" value="" style="rounded=1;whiteSpace=wrap;html=1;" vertex="1" parent="1">
          <mxGeometry x="580" y="250" width="210" height="100" as="geometry" />
        </mxCell>
        <mxCell id="bgq5ql3Wi5CXJPzBRoZU-40" value="Text (oppgave nummer/navn)" style="text;html=1;strokeColor=none;fillColor=none;align=center;verticalAlign=middle;whiteSpace=wrap;rounded=0;" vertex="1" parent="1">
          <mxGeometry x="580" y="230" width="170" height="20" as="geometry" />
        </mxCell>
        <mxCell id="bgq5ql3Wi5CXJPzBRoZU-42" value="" style="ellipse;whiteSpace=wrap;html=1;aspect=fixed;" vertex="1" parent="1">
          <mxGeometry x="590" y="262.5" width="15" height="15" as="geometry" />
        </mxCell>
        <mxCell id="bgq5ql3Wi5CXJPzBRoZU-43" value="" style="ellipse;whiteSpace=wrap;html=1;aspect=fixed;" vertex="1" parent="1">
          <mxGeometry x="590" y="282.5" width="15" height="15" as="geometry" />
        </mxCell>
        <mxCell id="bgq5ql3Wi5CXJPzBRoZU-44" value="" style="ellipse;whiteSpace=wrap;html=1;aspect=fixed;" vertex="1" parent="1">
          <mxGeometry x="590" y="302.5" width="15" height="15" as="geometry" />
        </mxCell>
        <mxCell id="bgq5ql3Wi5CXJPzBRoZU-45" value="" style="ellipse;whiteSpace=wrap;html=1;aspect=fixed;" vertex="1" parent="1">
          <mxGeometry x="590" y="322.5" width="15" height="15" as="geometry" />
        </mxCell>
        <mxCell id="bgq5ql3Wi5CXJPzBRoZU-46" value="Text" style="text;html=1;strokeColor=none;fillColor=none;align=center;verticalAlign=middle;whiteSpace=wrap;rounded=0;" vertex="1" parent="1">
          <mxGeometry x="610" y="260" width="40" height="20" as="geometry" />
        </mxCell>
        <mxCell id="bgq5ql3Wi5CXJPzBRoZU-47" value="Text" style="text;html=1;strokeColor=none;fillColor=none;align=center;verticalAlign=middle;whiteSpace=wrap;rounded=0;" vertex="1" parent="1">
          <mxGeometry x="610" y="280" width="40" height="20" as="geometry" />
        </mxCell>
        <mxCell id="bgq5ql3Wi5CXJPzBRoZU-48" value="Text" style="text;html=1;strokeColor=none;fillColor=none;align=center;verticalAlign=middle;whiteSpace=wrap;rounded=0;" vertex="1" parent="1">
          <mxGeometry x="610" y="300" width="40" height="20" as="geometry" />
        </mxCell>
        <mxCell id="bgq5ql3Wi5CXJPzBRoZU-49" value="Text" style="text;html=1;strokeColor=none;fillColor=none;align=center;verticalAlign=middle;whiteSpace=wrap;rounded=0;" vertex="1" parent="1">
          <mxGeometry x="610" y="320" width="40" height="20" as="geometry" />
        </mxCell>
        <mxCell id="bgq5ql3Wi5CXJPzBRoZU-50" value="" style="whiteSpace=wrap;html=1;aspect=fixed;fillColor=#FFFFFF;" vertex="1" parent="1">
          <mxGeometry x="760" y="265" width="10" height="10" as="geometry" />
        </mxCell>
        <mxCell id="bgq5ql3Wi5CXJPzBRoZU-51" value="" style="whiteSpace=wrap;html=1;aspect=fixed;fillColor=#000000;" vertex="1" parent="1">
          <mxGeometry x="760" y="285" width="10" height="10" as="geometry" />
        </mxCell>
        <mxCell id="bgq5ql3Wi5CXJPzBRoZU-52" value="" style="whiteSpace=wrap;html=1;aspect=fixed;" vertex="1" parent="1">
          <mxGeometry x="760" y="305" width="10" height="10" as="geometry" />
        </mxCell>
        <mxCell id="bgq5ql3Wi5CXJPzBRoZU-53" value="" style="whiteSpace=wrap;html=1;aspect=fixed;" vertex="1" parent="1">
          <mxGeometry x="760" y="325" width="10" height="10" as="geometry" />
        </mxCell>
        <mxCell id="bgq5ql3Wi5CXJPzBRoZU-54" value="X" style="rounded=0;whiteSpace=wrap;html=1;fillColor=#FFFFFF;" vertex="1" parent="1">
          <mxGeometry x="810" y="50" width="30" height="20" as="geometry" />
        </mxCell>
        <mxCell id="bgq5ql3Wi5CXJPzBRoZU-55" value="Checkbox(s)" style="text;whiteSpace=wrap;html=1;" vertex="1" parent="1">
          <mxGeometry x="410" y="130" width="70" height="30" as="geometry" />
        </mxCell>
        <mxCell id="bgq5ql3Wi5CXJPzBRoZU-56" value="" style="endArrow=classic;html=1;exitX=1;exitY=0.5;exitDx=0;exitDy=0;entryX=0;entryY=0.5;entryDx=0;entryDy=0;" edge="1" parent="1" source="bgq5ql3Wi5CXJPzBRoZU-55" target="bgq5ql3Wi5CXJPzBRoZU-19">
          <mxGeometry width="50" height="50" relative="1" as="geometry">
            <mxPoint x="480" y="250" as="sourcePoint" />
            <mxPoint x="530" y="200" as="targetPoint" />
          </mxGeometry>
        </mxCell>
        <mxCell id="bgq5ql3Wi5CXJPzBRoZU-57" value="" style="endArrow=classic;html=1;exitX=1;exitY=0.5;exitDx=0;exitDy=0;entryX=0;entryY=0.5;entryDx=0;entryDy=0;" edge="1" parent="1" source="bgq5ql3Wi5CXJPzBRoZU-55" target="bgq5ql3Wi5CXJPzBRoZU-20">
          <mxGeometry width="50" height="50" relative="1" as="geometry">
            <mxPoint x="480" y="250" as="sourcePoint" />
            <mxPoint x="530" y="200" as="targetPoint" />
          </mxGeometry>
        </mxCell>
        <mxCell id="bgq5ql3Wi5CXJPzBRoZU-58" value="" style="endArrow=classic;html=1;exitX=1;exitY=0.5;exitDx=0;exitDy=0;entryX=0;entryY=0.5;entryDx=0;entryDy=0;" edge="1" parent="1" source="bgq5ql3Wi5CXJPzBRoZU-55" target="bgq5ql3Wi5CXJPzBRoZU-21">
          <mxGeometry width="50" height="50" relative="1" as="geometry">
            <mxPoint x="490" y="155" as="sourcePoint" />
            <mxPoint x="600.0000000000084" y="167.5" as="targetPoint" />
          </mxGeometry>
        </mxCell>
        <mxCell id="bgq5ql3Wi5CXJPzBRoZU-59" value="" style="endArrow=classic;html=1;exitX=1;exitY=0.5;exitDx=0;exitDy=0;entryX=0;entryY=0.5;entryDx=0;entryDy=0;" edge="1" parent="1" source="bgq5ql3Wi5CXJPzBRoZU-55" target="bgq5ql3Wi5CXJPzBRoZU-22">
          <mxGeometry width="50" height="50" relative="1" as="geometry">
            <mxPoint x="500" y="165" as="sourcePoint" />
            <mxPoint x="610.0000000000084" y="177.5" as="targetPoint" />
          </mxGeometry>
        </mxCell>
      </root>
    </mxGraphModel>
  </diagram>
</mxfile>
